<?xml version="1.0" encoding="iso-8859-1"?>
<!-- Uploaded to: SVG Repo, www.svgrepo.com, Generator: SVG Repo Mixer Tools -->
<svg fill="#000000" height="800px" width="800px" version="1.1" id="Layer_1" xmlns="http://www.w3.org/2000/svg" xmlns:xlink="http://www.w3.org/1999/xlink" 
	 viewBox="0 0 512 512" xml:space="preserve">
<path d="M42.221,238.363h17.102c4.427,0,8.017-3.589,8.017-8.017s-3.589-8.017-8.017-8.017H42.221c-4.427,0-8.017,3.589-8.017,8.017
	S37.794,238.363,42.221,238.363z"/>
<path d="M76.424,290.739h-17.1c-4.427,0-8.017,3.589-8.017,8.017c0,4.427,3.589,8.017,8.017,8.017h17.1
	c4.427,0,8.017-3.589,8.017-8.017C84.44,294.328,80.851,290.739,76.424,290.739z"/>
<path d="M161.938,204.159h128.266c4.427,0,8.017-3.589,8.017-8.017s-3.589-8.017-8.017-8.017H161.938
	c-4.427,0-8.017,3.589-8.017,8.017S157.511,204.159,161.938,204.159z"/>
<path d="M93.528,204.159h34.206c4.427,0,8.017-3.589,8.017-8.017s-3.589-8.017-8.017-8.017H93.528c-4.427,0-8.017,3.589-8.017,8.017
	S89.101,204.159,93.528,204.159z"/>
<path d="M452.142,170.489c0-56.287-45.792-102.079-102.079-102.079c-25.648,0-50.169,9.551-69.044,26.891
	c-18.758,17.234-30.343,40.644-32.619,65.919c-0.398,4.409,2.855,8.306,7.265,8.704c4.409,0.391,8.306-2.855,8.704-7.265
	c1.919-21.293,11.684-41.021,27.498-55.55c15.908-14.616,36.575-22.665,58.196-22.665c47.446,0,86.046,38.6,86.046,86.046
	s-38.6,86.046-86.046,86.046H8.017c-4.427,0-8.017,3.589-8.017,8.017c0,4.427,3.589,8.017,8.017,8.017h342.046
	C406.349,272.568,452.142,226.775,452.142,170.489z"/>
<path d="M93.528,238.363h256.534c37.426,0,67.875-30.449,67.875-67.875s-30.448-67.875-67.875-67.875
	c-4.427,0-8.017,3.589-8.017,8.017c0,4.427,3.589,8.017,8.017,8.017c28.585,0,51.841,23.256,51.841,51.841
	s-23.256,51.841-51.841,51.841H93.528c-4.427,0-8.017,3.589-8.017,8.017S89.1,238.363,93.528,238.363z"/>
<path d="M341.511,290.739H110.63c-4.427,0-8.017,3.589-8.017,8.017c0,4.427,3.589,8.017,8.017,8.017h230.881
	c33.3,0,60.392,27.092,60.392,60.392s-27.092,60.392-60.392,60.392s-60.392-27.092-60.392-60.392c0-4.427-3.589-8.017-8.017-8.017
	c-4.427,0-8.017,3.589-8.017,8.017c0,42.141,34.285,76.426,76.426,76.426s76.426-34.285,76.426-76.426
	S383.653,290.739,341.511,290.739z"/>
<path d="M367.699,367.165c0,14.44-11.748,26.188-26.188,26.188c-4.427,0-8.017,3.589-8.017,8.017c0,4.427,3.589,8.017,8.017,8.017
	c23.281,0,42.221-18.941,42.221-42.221c0-23.281-18.941-42.221-42.221-42.221H93.528c-4.427,0-8.017,3.589-8.017,8.017
	c0,4.427,3.589,8.017,8.017,8.017h247.983C355.951,340.977,367.699,352.725,367.699,367.165z"/>
<path d="M503.983,290.739h-85.511c-4.427,0-8.017,3.589-8.017,8.017c0,4.427,3.589,8.017,8.017,8.017h85.511
	c4.427,0,8.017-3.589,8.017-8.017C512,294.328,508.411,290.739,503.983,290.739z"/>
<path d="M427.557,264.551c0,4.427,3.589,8.017,8.017,8.017h51.307c4.427,0,8.017-3.589,8.017-8.017c0-4.427-3.589-8.017-8.017-8.017
	h-51.307C431.147,256.534,427.557,260.124,427.557,264.551z"/>
</svg>